<svg xmlns="http://www.w3.org/2000/svg" width="13.475" height="11.211" viewBox="0 0 13.475 11.211">
<defs><style>.a{fill:#191919;}</style></defs>
<g transform="translate(0 -41.346)">
<g transform="translate(0 41.346)">
<path class="a" d="M13.26,46.428,8.394,41.561a.74.74,0,0,0-1.043,0L6.909,42a.732.732,0,0,0-.215.521.747.747,0,0,0,.215.528L9.748,45.9H.728A.72.72,0,0,0,0,46.623v.625A.747.747,0,0,0,.728,48H9.78L6.909,50.866a.73.73,0,0,0,0,1.036l.442.441a.74.74,0,0,0,1.043,0l4.866-4.866a.744.744,0,0,0,0-1.047Z" transform="translate(0 -41.346)"/></g></g>
</svg>